<?xml version="1.0" encoding="UTF-8"?>
<svg version="1.1" viewBox="0 0 1200 1200" width="1280" height="1280" xmlns="http://www.w3.org/2000/svg">
<path transform="translate(644,165)" d="m0 0h49l32 3 34 6 34 9 29 10 27 12 16 8 15 8 21 13 17 12 17 13 14 12 13 12 11 11-2 4-78 78-7 8-74 74-7 8-21 21-4-2-14-14-15-11-16-9-11-5-18-6-16-3-9-1h-25l-20 3-14 4-16 6-17 9-16 12-10 9-8 8-12 16-10 18-6 15-5 17-3 22v13l2 22 5 21 6 16 10 19 12 16 11 12 11 10 15 10 19 10 21 7 14 3 8 1h30l19-3 17-5 20-9 16-10 13-11 12-12 7 6 51 51 8 7 127 127-6 7-15 15-11 9-13 11-18 13-20 13-19 11-19 10-25 11-28 10-27 8-28 6-26 4-21 2h-57l-30-3-29-5-28-7-25-8-21-8-27-12-24-13-16-10-16-11-16-12-11-9-14-12-29-29-9-11-10-12-13-18-10-15-9-15-13-24-11-24-10-27-8-26-6-26-5-30-2-20-1-17v-43l3-31 5-29 8-32 10-30 11-26 8-17 13-23 10-16 11-16 14-18 12-14 9-10 23-23 11-9 9-8 20-15 18-12 22-13 23-12 28-12 36-12 32-8 29-5z" fill="#fff"/>
</svg>
